<svg xmlns="http://www.w3.org/2000/svg" xmlns:xlink="http://www.w3.org/1999/xlink" width="500" zoomAndPan="magnify" viewBox="0 0 375 374.999991" height="500" preserveAspectRatio="xMidYMid meet" version="1.0"><defs><clipPath id="2cc5654bfb"><path d="M 59 55 L 250 55 L 250 246 L 59 246 Z M 59 55 " clip-rule="nonzero"/></clipPath><clipPath id="abc3ded53a"><path d="M 175.589844 55.433594 L 306.050781 185.894531 L 189.90625 302.039062 L 59.445312 171.578125 Z M 175.589844 55.433594 " clip-rule="nonzero"/></clipPath><clipPath id="f9c8ec8dea"><path d="M 48.394531 -71.761719 L 306.132812 185.980469 L 189.992188 302.121094 L -67.75 44.382812 Z M 48.394531 -71.761719 " clip-rule="nonzero"/></clipPath></defs><g clip-path="url(#2cc5654bfb)"><g clip-path="url(#abc3ded53a)"><g clip-path="url(#f9c8ec8dea)"><path fill="#b17566" d="M 137.074219 245.25 L 242.621094 245.25 C 246.398438 245.25 249.347656 242.296875 249.347656 238.519531 L 249.347656 132.972656 C 249.347656 129.195312 246.398438 126.242188 242.621094 126.242188 C 238.839844 126.242188 235.890625 129.195312 235.890625 132.972656 L 235.890625 222.460938 L -0.113281 -13.539062 C -2.710938 -16.136719 -6.960938 -16.136719 -9.558594 -13.539062 C -12.15625 -10.941406 -12.15625 -6.691406 -9.558594 -4.09375 L 226.445312 231.90625 L 137.074219 231.789062 C 135.183594 231.789062 133.53125 232.496094 132.351562 233.679688 C 131.171875 234.859375 130.460938 236.511719 130.460938 238.402344 C 130.460938 242.179688 133.414062 245.128906 137.074219 245.25 Z M 137.074219 245.25 " fill-opacity="1" fill-rule="nonzero"/></g></g></g></svg>