<svg xmlns="http://www.w3.org/2000/svg" xmlns:xlink="http://www.w3.org/1999/xlink" width="500" zoomAndPan="magnify" viewBox="0 0 375 374.999991" height="500" preserveAspectRatio="xMidYMid meet" version="1.0"><defs><clipPath id="7f0a8e4bb6"><path d="M 0 0 L 375 0 L 375 369.75 L 0 369.75 Z M 0 0 " clip-rule="nonzero"/></clipPath></defs><g clip-path="url(#7f0a8e4bb6)"><path fill="#b17566" d="M 187.589844 0.0703125 C 180.792969 0.0703125 174.082031 0.453125 167.46875 1.148438 C 150.128906 2.550781 134.445312 5.761719 123.855469 10.550781 L 123.8125 10.574219 L 123.789062 10.574219 C 123.324219 10.875 123.011719 11.15625 122.558594 11.457031 C 116.796875 13.105469 111.484375 15.359375 106.628906 18.179688 C 44.128906 47.78125 0.839844 110.582031 0.277344 183.382812 L 0.210938 183.574219 L 0.210938 183.683594 C 0.210938 183.910156 0.253906 184.128906 0.257812 184.355469 C 0.253906 184.507812 0.234375 184.65625 0.234375 184.808594 C 0.234375 220.660156 10.648438 254.113281 28.589844 282.449219 C 30.207031 286.335938 32.796875 290.058594 36.238281 293.625 C 61.132812 327.21875 97.238281 352.210938 139.113281 363.257812 C 154.582031 367.339844 170.820312 369.546875 187.589844 369.546875 C 193.285156 369.546875 198.917969 369.261719 204.488281 368.769531 C 204.675781 368.75 204.867188 368.757812 205.050781 368.726562 C 211.253906 368.160156 217.363281 367.304688 223.378906 366.152344 C 236.996094 364.027344 249.535156 360.550781 259.277344 355.5 C 282.335938 346.066406 303.078125 332.230469 320.414062 315.042969 L 320.566406 314.890625 C 329.78125 306.320312 337.722656 296.582031 344.316406 285.976562 C 363.664062 256.910156 374.941406 222.160156 374.941406 184.8125 C 374.941406 144.753906 361.964844 107.695312 339.972656 77.421875 L 339.195312 76.363281 C 318.6875 48.546875 290.519531 26.59375 257.742188 13.515625 C 257.722656 13.507812 257.699219 13.5 257.675781 13.492188 C 245.3125 7.125 228.484375 3.289062 210.652344 1.519531 C 203.085938 0.601562 195.402344 0.0703125 187.589844 0.0703125 Z M 183.808594 1.214844 C 187.167969 1.167969 190.5625 1.1875 193.945312 1.277344 C 198.863281 1.414062 203.75 1.746094 208.597656 2.1875 C 209.429688 2.277344 210.253906 2.40625 211.082031 2.511719 C 205.011719 3.167969 198.097656 6.789062 190.398438 13.339844 C 190.347656 13.347656 190.300781 13.351562 190.25 13.359375 C 189.589844 13.175781 188.964844 12.960938 188.304688 12.777344 L 188.195312 12.734375 L 188.085938 12.753906 L 186.230469 13.164062 C 183.546875 9.695312 180.96875 6.800781 178.601562 5.039062 C 176.113281 3.195312 173.761719 2.238281 171.574219 2.164062 C 170.847656 2.140625 170.128906 2.214844 169.4375 2.382812 C 166.671875 3.054688 164.289062 5.222656 162.238281 8.585938 C 162.105469 8.804688 162.003906 9.132812 161.871094 9.363281 C 156.429688 8.640625 151.171875 8.1875 146.226562 8.195312 C 141 8.203125 136.128906 8.722656 131.441406 9.492188 C 143.289062 5.808594 155.621094 3.257812 168.355469 1.972656 L 168.507812 1.949219 C 173.515625 1.5625 178.609375 1.285156 183.808594 1.214844 Z M 171.554688 3.03125 C 173.523438 3.09375 175.691406 3.957031 178.082031 5.730469 C 180.289062 7.371094 182.757812 10.105469 185.320312 13.382812 C 184.648438 13.527344 184 13.6875 183.332031 13.835938 C 176.125 11.832031 169.273438 10.375 162.78125 9.46875 C 162.851562 9.347656 162.902344 9.15625 162.972656 9.039062 C 164.957031 5.789062 167.191406 3.820312 169.652344 3.222656 C 170.265625 3.074219 170.898438 3.007812 171.554688 3.03125 Z M 213.546875 3.222656 C 214.582031 3.242188 215.574219 3.359375 216.550781 3.546875 C 220.726562 4.355469 224.425781 6.757812 227.679688 10.484375 C 226.8125 10.453125 226.011719 10.351562 225.132812 10.335938 C 214.980469 10.144531 203.9375 11.066406 192.066406 13.058594 C 200.257812 6.34375 207.441406 3.125 213.546875 3.222656 Z M 220.375 3.894531 C 233.273438 6.152344 245.710938 9.691406 257.550781 14.417969 C 258.453125 14.890625 259.222656 15.433594 260.078125 15.933594 C 250.785156 12.871094 240.328125 11.089844 228.847656 10.570312 C 226.320312 7.519531 223.503906 5.246094 220.378906 3.894531 Z M 137.085938 6.917969 C 136.359375 7.121094 135.625 7.316406 134.902344 7.523438 C 135.621094 7.316406 136.34375 7.117188 137.085938 6.917969 Z M 146.25 9.039062 C 151.066406 9.035156 156.191406 9.488281 161.484375 10.183594 C 160.507812 12.015625 159.59375 14.132812 158.761719 16.539062 C 137.425781 19.15625 118.757812 23.671875 102.503906 29.742188 C 106.734375 24.457031 113.457031 18.667969 122.691406 12.453125 C 123.34375 12.214844 124 11.972656 124.65625 11.738281 C 131.269531 10.035156 138.40625 9.042969 146.25 9.039062 Z M 162.371094 10.292969 C 168.429688 11.128906 174.816406 12.445312 181.519531 14.246094 L 179.703125 14.65625 C 172.820312 15.074219 166.121094 15.640625 159.714844 16.40625 C 160.535156 14.074219 161.417969 12.039062 162.371094 10.292969 Z M 225.109375 11.175781 C 226.253906 11.199219 227.292969 11.347656 228.417969 11.394531 C 230.085938 13.453125 231.574219 16.035156 233 18.804688 C 221.105469 16.730469 208.292969 15.316406 194.53125 14.613281 C 193.722656 14.375 192.921875 14.132812 192.109375 13.902344 C 203.96875 11.90625 214.996094 10.992188 225.109375 11.175781 Z M 229.585938 11.457031 C 242.472656 12.109375 253.914062 14.488281 263.988281 18.351562 C 269.027344 22.558594 272.753906 26.515625 275.402344 30.238281 C 263.085938 25.503906 249.328125 21.707031 234.054688 18.980469 C 232.667969 16.203125 231.21875 13.582031 229.582031 11.457031 Z M 188.199219 13.640625 C 188.242188 13.652344 188.285156 13.671875 188.328125 13.683594 L 187.3125 13.855469 C 187.613281 13.792969 187.894531 13.703125 188.199219 13.640625 Z M 119.386719 13.75 C 111.03125 19.660156 104.839844 25.203125 101.015625 30.324219 C 96.285156 32.136719 91.714844 34.046875 87.402344 36.117188 C 92.621094 29.445312 98.820312 23.859375 106.007812 19.496094 C 110.371094 17.402344 114.84375 15.511719 119.386719 13.75 Z M 185.90625 14.160156 C 185.941406 14.203125 185.980469 14.246094 186.015625 14.289062 C 185.742188 14.300781 185.488281 14.339844 185.214844 14.355469 L 185.171875 14.332031 Z M 190.554688 14.332031 L 190.898438 14.441406 L 190.445312 14.417969 Z M 187.980469 15.175781 L 188.21875 15.195312 C 188.191406 15.222656 188.160156 15.234375 188.132812 15.261719 Z M 189.472656 15.242188 C 191.128906 15.300781 192.75 15.394531 194.378906 15.476562 C 210.148438 20.144531 224.734375 25.558594 238.164062 31.644531 C 238.699219 33.40625 239.15625 35.363281 239.636719 37.261719 C 231.878906 36.273438 223.988281 35.550781 216.011719 35.101562 C 207.550781 28.25 198.515625 21.785156 188.867188 15.757812 L 189.472656 15.238281 Z M 184.15625 15.261719 C 174.132812 20.183594 164.707031 25.621094 155.84375 31.492188 C 156.4375 28.207031 157.109375 25.152344 157.832031 22.371094 C 157.933594 21.988281 158.054688 21.707031 158.15625 21.335938 C 165.175781 19.210938 172.460938 17.28125 180.007812 15.523438 C 181.390625 15.4375 182.753906 15.332031 184.15625 15.261719 Z M 185.777344 15.390625 C 186.234375 15.527344 186.660156 15.621094 187.117188 15.757812 L 187.269531 15.976562 C 187.140625 16.09375 187.03125 16.175781 186.902344 16.300781 L 186.878906 16.300781 L 186.859375 16.320312 C 182.003906 21.789062 177.488281 28.140625 173.242188 35.101562 C 167.148438 35.429688 161.097656 35.910156 155.109375 36.507812 C 155.304688 35.21875 155.460938 33.859375 155.671875 32.636719 C 165.058594 26.375 175.074219 20.578125 185.777344 15.390625 Z M 198.03125 15.652344 C 210.667969 16.417969 222.464844 17.808594 233.476562 19.757812 C 234.039062 20.902344 234.660156 21.898438 235.183594 23.148438 C 236.125 25.40625 236.960938 27.9375 237.777344 30.519531 C 225.488281 24.988281 212.257812 20.007812 198.03125 15.652344 Z M 174.710938 15.824219 C 169.140625 17.207031 163.757812 18.734375 158.480469 20.320312 C 158.785156 19.265625 159.109375 18.277344 159.433594 17.316406 C 164.390625 16.71875 169.464844 16.214844 174.710938 15.824219 Z M 187.808594 16.667969 C 188.109375 17.09375 188.371094 17.363281 188.671875 17.8125 L 188.695312 17.855469 C 190.5625 23.210938 192.335938 28.8125 194.054688 34.519531 C 192.589844 34.519531 191.128906 34.5 189.667969 34.519531 C 185.226562 34.578125 180.777344 34.703125 176.355469 34.90625 C 175.683594 34.9375 175.015625 35.003906 174.34375 35.035156 C 178.464844 28.34375 182.808594 22.199219 187.484375 16.925781 C 187.59375 16.824219 187.699219 16.769531 187.808594 16.667969 Z M 189.019531 16.839844 C 198.050781 22.515625 206.535156 28.609375 214.519531 35.015625 C 208.023438 34.675781 201.484375 34.519531 194.941406 34.519531 C 193.191406 28.699219 191.398438 22.992188 189.496094 17.53125 L 189.472656 17.488281 L 189.453125 17.421875 C 189.296875 17.195312 189.171875 17.0625 189.019531 16.839844 Z M 263.386719 16.882812 C 265.308594 17.726562 267.226562 18.570312 269.113281 19.476562 C 267.621094 18.808594 266.042969 18.238281 264.488281 17.640625 L 264.144531 17.335938 L 264.121094 17.316406 C 263.894531 17.160156 263.617188 17.035156 263.386719 16.882812 Z M 158.460938 17.445312 C 158.121094 18.476562 157.78125 19.496094 157.464844 20.621094 C 134.414062 27.632812 114.160156 36.53125 96.585938 46.878906 C 96.152344 44.46875 96.28125 41.921875 97.148438 39.1875 C 97.964844 36.617188 99.476562 33.882812 101.601562 31.015625 C 117.953125 24.785156 136.824219 20.125 158.460938 17.445312 Z M 266.347656 19.28125 C 278.128906 24.171875 288 31.117188 296.0625 39.726562 C 290.101562 36.476562 283.699219 33.476562 276.851562 30.78125 C 274.433594 27.144531 270.941406 23.316406 266.347656 19.28125 Z M 234.535156 19.929688 C 249.996094 22.726562 263.875 26.632812 276.265625 31.492188 C 279.304688 36.140625 280.632812 40.398438 280.4375 44.265625 C 280.414062 44.714844 280.304688 45.144531 280.242188 45.582031 C 279.839844 45.464844 279.460938 45.3125 279.054688 45.195312 C 271.933594 43.128906 264.503906 41.410156 256.882812 39.964844 C 251.125 36.851562 245.125 33.859375 238.878906 31.015625 C 237.984375 28.117188 237.035156 25.339844 235.980469 22.828125 C 235.539062 21.761719 235.007812 20.921875 234.535156 19.929688 Z M 157.140625 21.660156 C 157.09375 21.839844 157.039062 21.972656 156.992188 22.15625 C 156.207031 25.175781 155.527344 28.546875 154.894531 32.140625 C 152.363281 33.835938 149.875 35.5625 147.4375 37.328125 C 130.320312 39.363281 113.925781 42.449219 99.027344 46.425781 C 115.917969 36.710938 135.277344 28.347656 157.144531 21.660156 Z M 273.652344 21.765625 C 275.53125 22.730469 277.390625 23.726562 279.230469 24.75 C 295.941406 34.0625 311.054688 45.824219 324.050781 59.566406 C 316.664062 52.757812 308.113281 46.570312 298.417969 41.066406 C 292.890625 34.800781 286.570312 29.257812 279.226562 24.75 C 277.460938 23.664062 275.527344 22.738281 273.652344 21.765625 Z M 100.195312 22.4375 C 94.917969 26.382812 90.175781 30.980469 86.105469 36.3125 C 85.933594 36.539062 85.78125 36.792969 85.609375 37.023438 C 67.308594 46.085938 52.765625 57.421875 41.671875 70.417969 C 57.585938 50.734375 77.484375 34.34375 100.199219 22.4375 Z M 100.109375 31.578125 C 98.363281 34.117188 97.074219 36.578125 96.328125 38.925781 C 95.390625 41.886719 95.246094 44.691406 95.765625 47.332031 C 90.253906 48.878906 84.886719 50.5 79.859375 52.28125 C 78.859375 52.636719 77.945312 53.023438 76.964844 53.386719 C 79.59375 47.699219 82.664062 42.449219 86.191406 37.695312 C 90.605469 35.515625 95.246094 33.480469 100.109375 31.578125 Z M 277.652344 32.011719 C 284.929688 34.933594 291.640625 38.207031 297.902344 41.757812 C 298.8125 42.792969 299.785156 43.769531 300.644531 44.847656 C 303.597656 48.539062 306.222656 52.507812 308.621094 56.671875 C 300.15625 52.417969 290.929688 48.804688 281.089844 45.84375 C 281.164062 45.332031 281.277344 44.828125 281.304688 44.308594 C 281.496094 40.503906 280.328125 36.40625 277.652344 32.011719 Z M 239.265625 32.164062 C 244.425781 34.523438 249.46875 36.960938 254.289062 39.511719 C 249.777344 38.699219 245.199219 38 240.5625 37.390625 C 240.128906 35.648438 239.75 33.796875 239.265625 32.164062 Z M 154.722656 33.285156 C 154.542969 34.34375 154.390625 35.488281 154.222656 36.59375 C 152.558594 36.761719 150.882812 36.902344 149.230469 37.089844 C 151.035156 35.800781 152.863281 34.535156 154.722656 33.285156 Z M 189.667969 35.382812 C 191.21875 35.363281 192.765625 35.382812 194.316406 35.382812 C 198.148438 48.207031 201.605469 61.789062 204.6875 75.925781 C 197.265625 76.367188 189.703125 76.546875 182.191406 76.402344 C 173.097656 76.226562 164.140625 75.574219 155.566406 74.542969 C 160.851562 60.246094 166.933594 47.214844 173.761719 35.941406 C 174.644531 35.898438 175.515625 35.8125 176.398438 35.769531 C 180.808594 35.566406 185.238281 35.4375 189.667969 35.382812 Z M 195.199219 35.382812 C 202.050781 35.390625 208.898438 35.566406 215.6875 35.945312 C 226.058594 44.359375 235.476562 53.367188 244.109375 62.785156 C 244.378906 65.152344 244.648438 67.515625 244.867188 69.984375 C 233.234375 73 219.746094 75.015625 205.574219 75.90625 C 202.496094 61.777344 199.027344 48.210938 195.199219 35.382812 Z M 172.660156 36.007812 C 165.894531 47.269531 159.886719 60.246094 154.65625 74.433594 C 153.742188 74.320312 152.835938 74.191406 151.933594 74.066406 C 152.441406 60.257812 153.417969 47.859375 154.960938 37.390625 C 160.808594 36.808594 166.707031 36.339844 172.660156 36.007812 Z M 217.179688 36.050781 C 224.84375 36.511719 232.421875 37.210938 239.875 38.171875 C 241.582031 45.121094 242.929688 52.894531 243.9375 61.382812 C 235.753906 52.53125 226.90625 44.015625 217.179688 36.050781 Z M 154.074219 37.480469 C 152.546875 47.933594 151.550781 60.257812 151.050781 73.960938 C 137.757812 72.09375 125.796875 69.148438 116.429688 65.183594 C 125.824219 55.527344 136.285156 46.488281 147.746094 38.171875 C 149.847656 37.921875 151.957031 37.695312 154.078125 37.480469 Z M 240.804688 38.300781 C 246.152344 39.003906 251.445312 39.808594 256.625 40.785156 C 263.832031 44.6875 270.644531 48.777344 277.089844 53.0625 C 274.464844 56.632812 270.421875 59.832031 265.160156 62.613281 C 260.921875 64.851562 255.859375 66.792969 250.3125 68.492188 C 248.554688 66.449219 246.765625 64.425781 244.933594 62.417969 C 243.921875 53.601562 242.5625 45.519531 240.804688 38.300781 Z M 145.929688 38.40625 C 134.851562 46.558594 124.738281 55.40625 115.609375 64.816406 C 111.617188 63.074219 107.980469 61.199219 105.125 59.070312 C 101.488281 56.351562 98.871094 53.339844 97.476562 50.035156 C 97.1875 49.351562 96.988281 48.648438 96.804688 47.9375 C 111.835938 43.78125 128.484375 40.558594 145.929688 38.410156 Z M 84.550781 38.515625 C 81.222656 43.195312 78.316406 48.324219 75.820312 53.839844 C 61.167969 59.382812 48.953125 65.890625 40.484375 73.246094 C 41.027344 72.578125 41.523438 71.894531 42.082031 71.238281 C 52.832031 58.566406 66.902344 47.472656 84.550781 38.515625 Z M 259.328125 41.324219 C 266.007812 42.660156 272.523438 44.199219 278.800781 46.015625 C 279.25 46.144531 279.667969 46.316406 280.117188 46.449219 C 279.699219 48.539062 278.855469 50.511719 277.589844 52.390625 C 271.808594 48.546875 265.71875 44.863281 259.328125 41.324219 Z M 300.257812 43.140625 C 313.84375 51.171875 325.054688 60.609375 333.972656 71.148438 C 335.652344 73.132812 337.246094 75.164062 338.769531 77.222656 C 340.144531 79.082031 341.433594 80.96875 342.683594 82.882812 C 334.355469 72.578125 323.171875 64.117188 309.984375 57.316406 C 307.410156 52.722656 304.550781 48.351562 301.316406 44.308594 C 300.988281 43.894531 300.59375 43.546875 300.257812 43.140625 Z M 280.960938 46.707031 C 291.144531 49.78125 300.691406 53.511719 309.359375 57.96875 C 314.734375 67.628906 318.679688 78.445312 321.308594 90.082031 C 309.464844 76.71875 295.179688 64.175781 278.304688 52.863281 C 279.609375 50.925781 280.511719 48.882812 280.960938 46.707031 Z M 95.984375 48.242188 C 96.171875 48.964844 96.378906 49.683594 96.675781 50.382812 C 98.148438 53.867188 100.882812 56.980469 104.605469 59.761719 C 107.457031 61.890625 111.042969 63.769531 114.957031 65.507812 C 97.710938 83.429688 84.050781 103.339844 73.550781 124.078125 C 72.71875 124.339844 71.84375 124.566406 71.023438 124.835938 C 68.851562 125.546875 66.835938 126.363281 64.734375 127.125 C 63.988281 104.042969 66.425781 82.398438 72.644531 64.148438 C 79.8125 58.542969 87.597656 53.234375 95.984375 48.242188 Z M 93.042969 48.996094 C 86.003906 53.308594 79.386719 57.839844 73.226562 62.59375 C 74.21875 59.808594 75.296875 57.121094 76.46875 54.507812 C 77.703125 54.042969 78.871094 53.554688 80.140625 53.105469 C 84.25 51.648438 88.597656 50.296875 93.042969 48.996094 Z M 277.804688 53.535156 C 295.113281 65.125 309.683594 78.011719 321.675781 91.746094 C 324.445312 104.699219 325.519531 118.652344 325.21875 133.109375 C 323.839844 132.527344 322.5625 131.898438 321.136719 131.335938 C 310.34375 127.078125 298.203125 123.476562 285.28125 120.402344 C 276.113281 102.605469 264.695312 85.359375 250.898438 69.203125 C 256.351562 67.511719 261.359375 65.59375 265.570312 63.367188 C 270.914062 60.546875 275.078125 57.257812 277.804688 53.535156 Z M 75.324219 54.941406 C 74.089844 57.753906 72.941406 60.628906 71.910156 63.628906 C 54.179688 77.535156 40.109375 93.183594 29.460938 109.792969 C 27.402344 103.597656 27.277344 96.886719 29.484375 89.585938 C 29.628906 89.167969 29.898438 88.765625 30.066406 88.351562 C 32.027344 84.960938 34.171875 81.640625 36.507812 78.410156 C 44.578125 69.5 58.15625 61.523438 75.324219 54.941406 Z M 310.71875 58.617188 C 326.773438 67.085938 339.707031 78.074219 347.957031 91.875 C 350.21875 102.074219 348.105469 111.09375 342.578125 119.0625 C 336.929688 109.582031 330.265625 100.339844 322.523438 91.445312 C 319.972656 79.574219 316.082031 68.515625 310.722656 58.617188 Z M 245.109375 63.824219 C 246.589844 65.457031 248.023438 67.113281 249.453125 68.773438 C 248.25 69.128906 246.964844 69.433594 245.714844 69.765625 C 245.535156 67.742188 245.320312 65.785156 245.109375 63.824219 Z M 71.4375 65.121094 C 65.449219 83.3125 63.105469 104.683594 63.871094 127.449219 C 58.917969 129.273438 54.15625 131.214844 49.628906 133.328125 C 43.949219 129.554688 39.214844 125.433594 35.648438 120.964844 C 33.085938 117.761719 31.152344 114.363281 29.832031 110.808594 C 40.265625 94.386719 54.054688 78.921875 71.433594 65.121094 Z M 115.78125 65.878906 C 125.328125 69.976562 137.507812 72.964844 151.03125 74.847656 C 150.90625 78.460938 150.789062 82.144531 150.726562 85.933594 C 148.089844 93.996094 145.679688 102.359375 143.488281 110.960938 C 118.910156 113.121094 95.40625 117.3125 74.699219 123.730469 C 85.15625 103.253906 98.703125 83.578125 115.785156 65.875 Z M 250.035156 69.484375 C 263.710938 85.460938 275.035156 102.523438 284.160156 120.125 C 272.398438 117.367188 259.992188 115.066406 247.097656 113.339844 C 247.339844 98.136719 246.898438 83.773438 245.777344 70.652344 C 247.210938 70.273438 248.664062 69.898438 250.035156 69.488281 Z M 244.933594 70.871094 C 246.042969 83.886719 246.46875 98.144531 246.230469 113.230469 C 235.121094 111.761719 223.703125 110.722656 212.148438 110.050781 C 210.230469 98.75 208.121094 87.59375 205.773438 76.746094 C 219.871094 75.863281 233.300781 73.878906 244.933594 70.871094 Z M 151.894531 74.953125 L 154.339844 75.277344 C 153.394531 77.859375 152.550781 80.574219 151.660156 83.230469 C 151.714844 80.402344 151.800781 77.683594 151.894531 74.953125 Z M 155.246094 75.386719 C 163.917969 76.429688 172.976562 77.089844 182.175781 77.265625 C 189.761719 77.410156 197.394531 77.238281 204.890625 76.792969 C 207.234375 87.613281 209.351562 98.726562 211.265625 110.007812 C 207.1875 109.777344 203.113281 109.53125 199.011719 109.402344 C 193.363281 109.226562 187.703125 109.144531 182.046875 109.164062 C 171.886719 109.203125 161.753906 109.578125 151.746094 110.265625 C 151.613281 101.980469 151.492188 93.746094 151.617188 86.039062 C 152.796875 82.441406 153.976562 78.851562 155.246094 75.386719 Z M 29.875 86.734375 C 29.710938 87.085938 29.527344 87.4375 29.378906 87.792969 C 19.550781 104.730469 14.335938 123.550781 13.015625 143.140625 C 9.90625 151.796875 7.570312 160.550781 6.015625 169.355469 C 4.007812 172.878906 2.398438 176.582031 1.175781 180.441406 C 1.992188 146.042969 12.386719 113.972656 29.875 86.734375 Z M 150.707031 88.722656 C 150.625 95.628906 150.761719 102.980469 150.878906 110.332031 C 148.714844 110.484375 146.570312 110.6875 144.417969 110.871094 C 146.355469 103.300781 148.425781 95.878906 150.707031 88.722656 Z M 27.953125 92.222656 C 26.46875 98.839844 26.824219 105.023438 28.859375 110.742188 C 22.828125 120.292969 17.929688 130.15625 14.097656 140.199219 C 15.589844 123.332031 20.085938 107.105469 27.953125 92.222656 Z M 322.878906 93.109375 C 330.273438 101.730469 336.640625 110.683594 342.070312 119.84375 C 341.238281 120.984375 340.339844 122.09375 339.367188 123.191406 C 336 127.003906 331.640625 130.492188 326.726562 133.761719 L 326.078125 133.480469 C 326.390625 119.414062 325.453125 105.796875 322.878906 93.109375 Z M 349.222656 94.296875 C 358.953125 113.605469 363.167969 135.09375 362.796875 157.230469 C 361.976562 156.339844 361.164062 155.441406 360.265625 154.570312 C 359.636719 153.960938 358.839844 153.398438 358.171875 152.800781 C 354.410156 141.652344 349.386719 130.625 343.0625 119.882812 C 348.386719 112.347656 350.664062 103.792969 349.222656 94.296875 Z M 351.664062 97.300781 C 365.292969 122.042969 373.277344 150.230469 374.035156 180.160156 C 373.1875 172.207031 369.558594 164.84375 363.636719 158.117188 C 364.109375 136.84375 360.402344 116.105469 351.664062 97.300781 Z M 182.035156 110.050781 C 187.683594 110.03125 193.339844 110.09375 198.976562 110.269531 C 203.132812 110.398438 207.273438 110.640625 211.40625 110.871094 C 214.238281 127.667969 216.46875 144.800781 218.363281 161.878906 C 207.660156 162.566406 196.777344 162.867188 185.902344 162.785156 C 175.101562 162.703125 164.320312 162.222656 153.742188 161.378906 C 153 150.035156 152.421875 138.800781 152.035156 127.859375 C 151.835938 122.105469 151.828125 116.71875 151.734375 111.15625 C 161.738281 110.46875 171.875 110.089844 182.035156 110.050781 Z M 212.269531 110.917969 C 223.78125 111.589844 235.132812 112.652344 246.199219 114.113281 C 246.125 118.570312 246.019531 123.070312 245.832031 127.644531 C 245.410156 138.007812 244.695312 148.65625 243.738281 159.390625 C 235.734375 160.417969 227.558594 161.238281 219.230469 161.789062 C 217.339844 144.75 215.09375 127.683594 212.269531 110.917969 Z M 150.871094 111.21875 C 150.964844 116.78125 150.972656 122.152344 151.175781 127.902344 C 151.554688 138.8125 152.121094 150.007812 152.859375 161.316406 C 146.679688 160.8125 140.613281 160.136719 134.621094 159.371094 C 136.589844 146.511719 138.933594 133.769531 141.773438 121.421875 C 142.523438 118.164062 143.359375 114.984375 144.171875 111.785156 C 146.402344 111.589844 148.625 111.378906 150.871094 111.222656 Z M 29.261719 111.714844 C 30.605469 115.140625 32.484375 118.421875 34.945312 121.507812 C 38.492188 125.945312 43.144531 130.027344 48.691406 133.761719 C 34.339844 140.570312 22.285156 148.828125 13.636719 158.722656 C 13.453125 153.511719 13.53125 148.351562 13.875 143.226562 C 17.75 132.476562 22.871094 121.921875 29.261719 111.714844 Z M 143.265625 111.867188 C 142.480469 114.980469 141.660156 118.058594 140.929688 121.226562 C 138.085938 133.59375 135.730469 146.359375 133.757812 159.238281 C 109.785156 156.128906 87.597656 151.015625 69.847656 143.789062 C 68.5625 143.261719 67.4375 142.667969 66.195312 142.125 C 68.589844 136.289062 71.257812 130.519531 74.148438 124.789062 C 94.890625 118.285156 118.53125 114.050781 143.265625 111.867188 Z M 247.066406 114.222656 C 260.175781 115.984375 272.777344 118.320312 284.695312 121.136719 C 289.214844 129.949219 293.148438 138.871094 296.582031 147.851562 C 281.277344 152.992188 263.582031 156.808594 244.601562 159.285156 C 245.554688 148.589844 246.277344 137.988281 246.699219 127.667969 C 246.882812 123.121094 246.988281 118.652344 247.066406 114.222656 Z M 342.527344 120.621094 C 348.496094 130.804688 353.3125 141.234375 356.964844 151.78125 C 349.289062 145.191406 339.367188 139.308594 327.65625 134.167969 C 332.421875 130.957031 336.675781 127.53125 340 123.773438 C 340.90625 122.746094 341.738281 121.6875 342.527344 120.617188 Z M 285.816406 121.417969 C 298.417969 124.449219 310.265625 127.980469 320.808594 132.140625 C 322.339844 132.742188 323.714844 133.414062 325.195312 134.042969 C 325.1875 134.308594 325.203125 134.574219 325.195312 134.839844 C 318.898438 138.824219 311.589844 142.40625 303.367188 145.539062 C 301.472656 146.261719 299.40625 146.894531 297.425781 147.570312 C 294.066406 138.78125 290.214844 130.046875 285.820312 121.417969 Z M 72.984375 125.136719 C 70.316406 130.464844 67.851562 135.839844 65.613281 141.257812 C 65.230469 136.8125 64.90625 132.390625 64.75 128.03125 C 66.925781 127.242188 69.023438 126.394531 71.273438 125.65625 C 71.832031 125.472656 72.421875 125.316406 72.984375 125.136719 Z M 63.882812 128.355469 C 64.046875 132.667969 64.367188 137.054688 64.75 141.453125 C 59.582031 139.105469 54.746094 136.617188 50.527344 133.890625 C 54.789062 131.917969 59.238281 130.074219 63.882812 128.355469 Z M 49.535156 134.320312 C 54.03125 137.269531 59.253906 139.925781 64.8125 142.425781 C 64.832031 142.617188 64.839844 142.800781 64.855469 142.988281 C 52.390625 173.867188 46.828125 205.8125 47.566406 235.421875 C 40.824219 232.515625 34.761719 229.273438 29.285156 225.804688 C 23.464844 212.089844 19.023438 198.011719 16.402344 183.898438 C 14.921875 175.910156 14.023438 167.914062 13.679688 159.996094 C 22.363281 149.792969 34.71875 141.292969 49.535156 134.320312 Z M 326.824219 134.753906 C 339.234375 140.160156 349.671875 146.367188 357.492188 153.339844 C 359.359375 158.90625 360.890625 164.488281 362.140625 170.089844 C 361.644531 175.328125 360.90625 180.589844 359.933594 185.84375 C 357.777344 197.519531 354.371094 209.152344 350.058594 220.574219 C 342.917969 225.78125 334.519531 230.515625 324.816406 234.644531 C 321.589844 232.609375 318.148438 230.664062 314.398438 228.855469 C 314.148438 222.253906 313.609375 215.558594 312.777344 208.777344 C 318.503906 191.035156 322.625 172.957031 324.6875 155.265625 C 325.472656 148.519531 325.867188 141.878906 326.070312 135.296875 C 326.335938 135.121094 326.5625 134.929688 326.824219 134.753906 Z M 325.183594 135.921875 C 324.96875 142.269531 324.578125 148.679688 323.820312 155.175781 C 321.839844 172.207031 317.964844 189.617188 312.5625 206.71875 C 310.046875 187.5625 305.117188 167.871094 297.734375 148.371094 C 299.722656 147.691406 301.800781 147.0625 303.699219 146.339844 C 311.738281 143.277344 318.953125 139.804688 325.183594 135.921875 Z M 65.863281 142.902344 C 67.113281 143.453125 68.242188 144.058594 69.535156 144.585938 C 87.378906 151.855469 109.617188 156.988281 133.636719 160.105469 C 131.078125 176.984375 129.277344 194.046875 128.191406 210.804688 C 111.917969 213.125 96.59375 216.394531 83 220.660156 C 74.296875 195.707031 68.324219 169.699219 65.859375 144.761719 C 65.808594 144.222656 65.804688 143.699219 65.753906 143.160156 L 65.859375 142.902344 Z M 64.996094 144.867188 C 67.46875 169.863281 73.441406 195.917969 82.15625 220.921875 C 77.496094 222.402344 72.992188 223.960938 68.78125 225.675781 C 61.304688 228.71875 54.605469 232.144531 48.832031 235.917969 L 48.441406 235.765625 C 47.664062 206.675781 52.960938 175.28125 64.996094 144.867188 Z M 12.804688 146.25 C 12.597656 150.699219 12.597656 155.191406 12.78125 159.695312 C 10.714844 162.148438 8.898438 164.699219 7.25 167.34375 C 8.597656 160.273438 10.445312 153.226562 12.804688 146.25 Z M 296.902344 148.652344 C 304.5 168.71875 309.46875 188.980469 311.902344 208.644531 C 310.097656 214.222656 308.117188 219.738281 305.980469 225.222656 C 304.933594 224.796875 303.984375 224.332031 302.910156 223.925781 C 284.699219 216.988281 262.347656 212.210938 238.378906 209.445312 C 240.980469 193.144531 243.0625 176.550781 244.539062 160.167969 C 263.648438 157.6875 281.46875 153.839844 296.902344 148.648438 Z M 358.667969 154.335938 C 358.976562 154.621094 359.363281 154.886719 359.664062 155.175781 C 360.765625 156.246094 361.796875 157.339844 362.773438 158.441406 C 362.703125 161.328125 362.566406 164.222656 362.34375 167.128906 C 361.3125 162.855469 360.058594 158.585938 358.667969 154.335938 Z M 363.617188 159.433594 C 370.234375 167.234375 373.753906 175.828125 373.363281 185.175781 C 372.808594 191.761719 370.550781 197.886719 366.902344 203.589844 C 366.777344 192.5 365.464844 181.265625 362.96875 170.046875 C 363.300781 166.5 363.511719 162.960938 363.617188 159.433594 Z M 134.488281 160.234375 C 140.542969 161.007812 146.679688 161.671875 152.921875 162.179688 C 153.925781 177.375 155.332031 192.644531 156.898438 207.757812 C 147.40625 208.425781 138.105469 209.40625 129.042969 210.675781 C 130.128906 194 131.941406 177.027344 134.488281 160.234375 Z M 243.648438 160.277344 C 242.171875 176.589844 240.101562 193.109375 237.511719 209.335938 C 232.851562 208.808594 228.140625 208.367188 223.378906 207.996094 C 222.429688 193.152344 220.996094 177.9375 219.3125 162.652344 C 227.582031 162.101562 235.699219 161.289062 243.648438 160.277344 Z M 12.8125 161.011719 C 13.1875 168.652344 14.109375 176.351562 15.535156 184.050781 C 18.09375 197.839844 22.40625 211.589844 28.007812 225.003906 C 23.742188 222.214844 19.757812 219.328125 16.421875 216.1875 C 11.109375 211.1875 7.097656 205.730469 4.492188 199.847656 C 4.296875 189.828125 5.058594 179.714844 6.828125 169.632812 C 8.550781 166.632812 10.550781 163.773438 12.8125 161.011719 Z M 153.808594 162.265625 C 164.363281 163.101562 175.128906 163.566406 185.902344 163.648438 C 196.804688 163.730469 207.71875 163.433594 218.449219 162.742188 C 220.125 177.972656 221.542969 193.140625 222.492188 207.933594 C 210.214844 207.003906 197.6875 206.519531 185.144531 206.613281 C 175.960938 206.683594 166.808594 207.101562 157.765625 207.71875 C 156.199219 192.640625 154.8125 177.421875 153.808594 162.269531 Z M 5.574219 172.011719 C 4.210938 180.59375 3.554688 189.195312 3.605469 197.730469 C 1.945312 193.324219 1.054688 188.6875 1.078125 183.792969 C 1.078125 183.761719 1.078125 183.734375 1.078125 183.707031 C 1.078125 183.699219 1.078125 183.691406 1.078125 183.683594 C 1.078125 183.675781 1.078125 183.667969 1.078125 183.660156 C 2.117188 179.59375 3.664062 175.722656 5.574219 172.011719 Z M 362.644531 172.53125 C 364.882812 183.335938 366.042969 194.160156 366.082031 204.820312 C 363.179688 209.054688 359.519531 213.066406 355.101562 216.8125 C 353.972656 217.773438 352.609375 218.652344 351.382812 219.578125 C 355.46875 208.535156 358.683594 197.289062 360.765625 186.015625 C 361.59375 181.515625 362.160156 177.023438 362.644531 172.53125 Z M 374.121094 186.039062 C 373.917969 216.003906 366.386719 244.257812 353.265625 269.203125 C 360.289062 253.734375 364.742188 236.949219 366.296875 219.539062 C 366.722656 214.757812 366.933594 209.9375 366.925781 205.078125 C 370.894531 199.210938 373.398438 192.863281 374.121094 186.039062 Z M 1.273438 193.0625 C 1.832031 195.449219 2.644531 197.769531 3.628906 200.023438 C 3.726562 204.773438 4.015625 209.507812 4.535156 214.199219 C 5.539062 223.203125 7.359375 232.058594 9.875 240.695312 C 4.976562 225.574219 2.015625 209.597656 1.273438 193.0625 Z M 4.582031 202.097656 C 7.234375 207.375 11.007812 212.289062 15.820312 216.816406 C 19.457031 220.238281 23.839844 223.390625 28.546875 226.390625 C 31.238281 232.710938 34.179688 238.945312 37.472656 245.0625 C 36.304688 246.257812 35.191406 247.480469 34.1875 248.734375 C 27.457031 257.164062 24.75 266.925781 27.144531 277.847656 C 15.34375 258.527344 7.921875 236.742188 5.402344 214.113281 C 4.957031 210.132812 4.71875 206.121094 4.582031 202.097656 Z M 366.027344 206.417969 C 365.996094 210.792969 365.828125 215.140625 365.441406 219.453125 C 363.597656 240.074219 357.691406 259.816406 348.21875 277.5 C 350.480469 265.761719 347.0625 255.414062 339.335938 246.617188 C 343.722656 238.3125 347.488281 229.75 350.769531 221.070312 C 352.402344 219.871094 354.148438 218.71875 355.628906 217.460938 C 359.710938 214 363.199219 210.320312 366.027344 206.417969 Z M 185.132812 207.476562 C 197.707031 207.382812 210.261719 207.859375 222.566406 208.796875 C 223.613281 225.367188 224.0625 241.171875 224.207031 256.363281 C 210.90625 257.425781 197.378906 258.027344 183.835938 258.027344 C 177.203125 258.027344 170.585938 257.871094 163.996094 257.617188 C 161.652344 242.023438 159.625 225.480469 157.859375 208.578125 C 166.871094 207.964844 175.980469 207.546875 185.132812 207.476562 Z M 156.972656 208.625 C 158.734375 225.492188 160.769531 242 163.109375 257.574219 C 151.132812 257.089844 139.320312 256.160156 127.820312 254.832031 C 127.8125 254.40625 127.78125 254.003906 127.777344 253.578125 C 127.625 240.074219 128.070312 225.933594 128.984375 211.5625 C 138.085938 210.28125 147.433594 209.292969 156.972656 208.621094 Z M 223.429688 208.882812 C 228.136719 209.25 232.789062 209.679688 237.390625 210.203125 C 234.851562 225.976562 231.777344 241.382812 228.316406 256.019531 L 225.074219 256.300781 C 224.925781 241.15625 224.46875 225.394531 223.429688 208.882812 Z M 238.234375 210.308594 C 262.164062 213.070312 284.472656 217.820312 302.59375 224.726562 C 303.664062 225.132812 304.601562 225.597656 305.640625 226.019531 C 303.253906 232.097656 300.679688 238.066406 297.90625 243.960938 C 277.257812 249.777344 253.746094 253.742188 229.222656 255.953125 C 232.667969 241.363281 235.707031 226.019531 238.234375 210.308594 Z M 312.105469 210.71875 C 312.792969 216.703125 313.253906 222.605469 313.488281 228.441406 C 311.359375 227.433594 309.042969 226.503906 306.765625 225.566406 C 308.679688 220.65625 310.453125 215.710938 312.105469 210.71875 Z M 128.101562 211.691406 C 127.191406 226.019531 126.761719 240.109375 126.910156 253.574219 C 126.914062 253.964844 126.925781 254.332031 126.933594 254.722656 C 115.742188 253.402344 104.910156 251.679688 94.558594 249.554688 C 90.398438 240.429688 86.621094 231.058594 83.253906 221.484375 C 96.734375 217.253906 111.945312 214.003906 128.101562 211.691406 Z M 82.414062 221.71875 C 85.71875 231.125 89.429688 240.34375 93.5 249.316406 C 80.632812 246.632812 68.484375 243.40625 57.601562 239.464844 C 54.890625 238.480469 52.382812 237.390625 49.820312 236.328125 C 55.421875 232.71875 61.851562 229.417969 69.078125 226.472656 C 73.273438 224.765625 77.761719 223.199219 82.414062 221.71875 Z M 349.425781 222.085938 C 346.304688 230.179688 342.777344 238.164062 338.6875 245.925781 C 335.144531 242.042969 330.679688 238.5 325.589844 235.207031 C 334.628906 231.324219 342.582031 226.925781 349.425781 222.085938 Z M 306.441406 226.367188 C 308.847656 227.359375 311.296875 228.324219 313.53125 229.390625 C 313.644531 232.589844 313.703125 235.761719 313.679688 238.902344 L 311.757812 239.636719 C 307.675781 241.046875 303.40625 242.363281 299.050781 243.613281 C 301.699219 237.949219 304.152344 232.199219 306.441406 226.367188 Z M 29.808594 227.167969 C 35.171875 230.476562 41.066406 233.542969 47.570312 236.332031 C 47.574219 236.464844 47.566406 236.605469 47.570312 236.742188 C 44.011719 239.160156 40.851562 241.71875 38.105469 244.433594 C 35.066406 238.78125 32.328125 233 29.808594 227.167969 Z M 314.425781 229.867188 C 317.769531 231.503906 320.929688 233.21875 323.847656 235.035156 C 320.875 236.277344 317.726562 237.433594 314.554688 238.578125 C 314.570312 235.695312 314.523438 232.796875 314.425781 229.867188 Z M 324.691406 235.617188 C 330.035156 239.03125 334.660156 242.742188 338.285156 246.769531 C 329.785156 262.738281 319.25 277.742188 307.273438 291.246094 C 311.082031 278.480469 313.476562 264.5 314.316406 249.707031 C 314.507812 246.363281 314.5 242.929688 314.535156 239.507812 C 318.007812 238.257812 321.449219 236.988281 324.691406 235.617188 Z M 48.929688 236.871094 C 51.6875 238.023438 54.410156 239.203125 57.339844 240.261719 C 68.4375 244.285156 80.824219 247.574219 93.949219 250.292969 C 97.488281 258.035156 101.226562 265.625 105.292969 272.875 C 111.296875 283.578125 117.902344 293.578125 124.9375 302.808594 C 115.347656 305.738281 107.324219 309.335938 101.855469 313.636719 C 100.722656 314.527344 99.742188 315.472656 98.832031 316.421875 C 80.734375 302.503906 64.769531 285.320312 51.628906 266.285156 C 49.925781 257.363281 48.835938 248.066406 48.453125 238.492188 C 48.4375 238.078125 48.46875 237.652344 48.453125 237.238281 C 48.625 237.121094 48.753906 236.984375 48.929688 236.871094 Z M 47.589844 237.886719 C 47.597656 238.101562 47.582031 238.320312 47.589844 238.535156 C 47.949219 247.5 48.972656 256.191406 50.488281 264.597656 C 46.21875 258.292969 42.1875 251.863281 38.578125 245.210938 C 41.167969 242.632812 44.242188 240.207031 47.589844 237.886719 Z M 313.675781 239.832031 C 313.640625 243.128906 313.644531 246.441406 313.460938 249.664062 C 312.582031 265.128906 309.957031 279.65625 305.832031 292.84375 C 303.796875 295.097656 301.816406 297.40625 299.695312 299.566406 C 293.042969 306.328125 285.914062 312.5 278.515625 318.195312 C 275.75 312.945312 270.210938 308.628906 262.804688 305.164062 C 262.050781 304.8125 261.171875 304.523438 260.382812 304.191406 C 266.789062 296.816406 272.859375 288.941406 278.472656 280.546875 C 285.980469 269.3125 292.636719 257.214844 298.550781 244.691406 C 303.199219 243.375 307.714844 241.957031 312.058594 240.457031 C 312.621094 240.261719 313.121094 240.027344 313.679688 239.828125 Z M 297.445312 244.976562 C 291.625 257.226562 285.089844 269.070312 277.738281 280.070312 C 272.09375 288.519531 265.984375 296.441406 259.539062 303.84375 C 249.992188 299.941406 237.882812 297.230469 224.484375 295.65625 C 224.863281 288.097656 225.128906 280.230469 225.222656 271.902344 C 226.238281 268.140625 227.246094 264.371094 228.203125 260.46875 C 228.492188 259.28125 228.761719 258.039062 229.046875 256.839844 C 253.433594 254.65625 276.828125 250.730469 297.449219 244.976562 Z M 37.929688 245.839844 C 41.820312 252.992188 46.160156 259.945312 50.8125 266.695312 C 54.078125 283.660156 59.777344 299.144531 67.605469 312.511719 C 56.699219 307.804688 47.550781 302.496094 40.761719 296.714844 C 36.289062 291.417969 32.234375 285.839844 28.550781 280.03125 C 25.222656 268.359375 27.792969 258.152344 34.882812 249.277344 C 35.816406 248.105469 36.839844 246.964844 37.929688 245.839844 Z M 338.898438 247.460938 C 346.5625 256.304688 349.828125 266.546875 347.21875 278.367188 C 336.710938 295.949219 318.515625 308.871094 296.042969 317.9375 C 300.230469 310.449219 303.769531 302.234375 306.566406 293.34375 C 319.09375 279.476562 330.078125 263.996094 338.898438 247.460938 Z M 95.027344 250.527344 C 105.253906 252.609375 115.941406 254.289062 126.972656 255.585938 C 127.222656 272.019531 128.292969 287.4375 130.105469 301.359375 C 128.660156 301.742188 127.230469 302.136719 125.847656 302.550781 C 118.757812 293.28125 112.097656 283.226562 106.050781 272.445312 C 102.105469 265.410156 98.480469 258.03125 95.027344 250.53125 Z M 127.855469 255.695312 C 139.386719 257.027344 151.234375 257.957031 163.234375 258.4375 C 163.410156 259.601562 163.554688 260.875 163.734375 262.027344 C 165.542969 273.710938 167.496094 284.703125 169.570312 294.941406 C 155.714844 296.070312 142.460938 298.148438 130.96875 301.125 C 129.175781 287.3125 128.109375 271.996094 127.855469 255.695312 Z M 228.136719 256.925781 C 227.871094 258.03125 227.625 259.179688 227.355469 260.277344 C 226.671875 263.078125 225.9375 265.753906 225.21875 268.488281 C 225.238281 264.84375 225.121094 260.949219 225.089844 257.183594 Z M 224.222656 257.25 C 224.261719 261.878906 224.417969 266.722656 224.375 271.167969 C 224.371094 271.375 224.355469 271.546875 224.351562 271.75 C 222.160156 279.871094 219.832031 287.609375 217.371094 294.941406 C 208.507812 294.179688 199.277344 293.824219 189.96875 293.945312 C 185.976562 294 181.972656 294.125 177.996094 294.335938 C 175.460938 294.46875 172.960938 294.679688 170.453125 294.875 C 168.375 284.625 166.410156 273.601562 164.597656 261.898438 C 164.425781 260.800781 164.289062 259.589844 164.121094 258.484375 C 170.675781 258.734375 177.253906 258.894531 183.851562 258.894531 C 197.390625 258.894531 210.921875 258.308594 224.222656 257.25 Z M 52.105469 268.574219 C 65.042969 286.964844 80.640625 303.539062 98.226562 317.070312 C 96.828125 318.644531 95.75 320.289062 95.027344 322.019531 C 89.605469 320.5 84.324219 318.910156 79.378906 317.160156 C 75.734375 315.867188 72.261719 314.503906 68.921875 313.09375 C 61.164062 300.136719 55.492188 285.082031 52.105469 268.574219 Z M 224.246094 275.640625 C 224.132812 282.523438 223.9375 289.214844 223.617188 295.546875 C 221.847656 295.34375 220.066406 295.167969 218.257812 295.007812 C 220.332031 288.804688 222.359375 282.410156 224.246094 275.640625 Z M 345.53125 282.339844 C 344.957031 283.324219 344.359375 284.292969 343.761719 285.257812 C 336.726562 295.847656 328.65625 305.707031 319.621094 314.628906 L 319.488281 314.757812 C 307.894531 325.433594 294.28125 334.234375 278.925781 340.648438 C 285.226562 334.609375 290.652344 327.304688 295.347656 319.144531 C 316.855469 310.636719 334.484375 298.570312 345.535156 282.339844 Z M 189.992188 294.8125 C 199.191406 294.691406 208.3125 295.054688 217.074219 295.804688 C 211.910156 311.070312 206.214844 324.429688 200.085938 334.835938 C 193.601562 334.941406 187.109375 334.863281 180.636719 334.644531 C 177.113281 324.226562 173.742188 310.980469 170.628906 295.742188 C 173.097656 295.550781 175.550781 295.335938 178.042969 295.203125 C 182.007812 294.992188 186.011719 294.863281 189.992188 294.8125 Z M 305.121094 294.941406 C 302.320312 303.441406 298.839844 311.300781 294.746094 318.453125 C 290.078125 320.292969 285.269531 322 280.265625 323.511719 C 280.023438 321.957031 279.519531 320.480469 278.859375 319.058594 C 286.367188 313.300781 293.585938 307.042969 300.320312 300.191406 C 301.980469 298.507812 303.511719 296.6875 305.121094 294.941406 Z M 169.761719 295.804688 C 172.851562 310.957031 176.203125 324.167969 179.726562 334.621094 C 178.367188 334.574219 177 334.554688 175.640625 334.492188 C 168.601562 334.164062 161.628906 333.597656 154.722656 332.914062 C 146.859375 326.53125 139.378906 319.035156 132.308594 310.675781 C 131.851562 307.894531 131.46875 304.941406 131.078125 302.007812 C 142.5625 299.027344 155.863281 296.9375 169.761719 295.808594 Z M 217.980469 295.871094 C 219.875 296.039062 221.742188 296.242188 223.597656 296.453125 C 222.859375 310.679688 221.621094 323.382812 219.878906 333.972656 C 213.648438 334.40625 207.382812 334.71875 201.078125 334.835938 C 207.195312 324.367188 212.859375 311.054688 217.980469 295.871094 Z M 224.460938 296.5625 C 237.660156 298.125 249.574219 300.746094 258.957031 304.535156 C 249.179688 315.671875 238.554688 325.46875 227.207031 333.429688 C 225.078125 333.625 222.929688 333.75 220.789062 333.90625 C 222.515625 323.328125 223.734375 310.683594 224.460938 296.5625 Z M 40.285156 297.46875 L 40.414062 297.578125 C 51.765625 310.941406 65.550781 322.542969 81.5625 331.640625 C 82.835938 333.003906 84.132812 334.335938 85.476562 335.617188 C 90.722656 340.621094 96.5 344.925781 102.765625 348.496094 C 78.3125 336.160156 57.011719 318.671875 40.285156 297.46875 Z M 44.003906 300.386719 C 50.601562 305.269531 58.816406 309.742188 68.339844 313.765625 C 71.753906 319.4375 75.488281 324.777344 79.707031 329.5625 C 66.085938 321.519531 54.136719 311.640625 44.003906 300.386719 Z M 130.214844 302.246094 C 130.53125 304.621094 130.847656 307.015625 131.207031 309.292969 C 129.59375 307.351562 128.023438 305.335938 126.453125 303.304688 Z M 125.546875 303.542969 C 127.503906 306.085938 129.441406 308.636719 131.46875 311.042969 C 132.640625 318.121094 134.085938 324.617188 135.703125 330.601562 C 127.980469 329.453125 120.429688 328.097656 113.164062 326.539062 C 108.484375 323.5625 103.925781 320.351562 99.484375 316.964844 C 100.351562 316.058594 101.289062 315.164062 102.378906 314.304688 C 107.773438 310.0625 115.855469 306.46875 125.546875 303.542969 Z M 259.796875 304.882812 C 260.664062 305.246094 261.617188 305.578125 262.433594 305.964844 C 269.820312 309.417969 275.183594 313.6875 277.800781 318.777344 C 273.808594 321.820312 269.75 324.738281 265.570312 327.421875 C 253.875 330.109375 241.574219 332.058594 228.960938 333.28125 C 239.980469 325.386719 250.285156 315.746094 259.800781 304.882812 Z M 132.65625 312.488281 C 139.144531 320.039062 145.988281 326.84375 153.144531 332.761719 C 147.578125 332.191406 142.0625 331.5625 136.652344 330.773438 C 135.125 325.179688 133.792969 319.082031 132.65625 312.488281 Z M 69.632812 314.347656 C 72.671875 315.601562 75.828125 316.820312 79.101562 317.980469 C 84.027344 319.726562 89.285156 321.324219 94.683594 322.84375 C 93.542969 326.132812 93.679688 329.691406 95.332031 333.433594 C 96.160156 335.308594 97.382812 337.226562 98.984375 339.203125 C 93.128906 336.753906 87.488281 334.027344 82.125 330.988281 C 77.488281 326.003906 73.347656 320.382812 69.632812 314.347656 Z M 98.898438 317.613281 C 102.792969 320.582031 106.792969 323.382812 110.871094 326.039062 C 105.699219 324.890625 100.726562 323.605469 95.871094 322.257812 C 96.554688 320.652344 97.578125 319.101562 98.898438 317.613281 Z M 278.167969 319.621094 C 278.765625 320.957031 279.207031 322.328125 279.421875 323.769531 C 278.953125 323.910156 278.511719 324.089844 278.039062 324.226562 C 274.847656 325.152344 271.554688 325.976562 268.25 326.777344 C 271.632812 324.535156 274.910156 322.097656 278.167969 319.621094 Z M 294.054688 319.644531 C 289.230469 327.832031 283.679688 335.144531 277.21875 341.105469 L 276.570312 341.667969 C 275.640625 342.035156 274.679688 342.351562 273.738281 342.703125 C 278.863281 335.875 280.910156 329.777344 280.351562 324.375 C 285.070312 322.957031 289.625 321.355469 294.054688 319.644531 Z M 95.503906 323.078125 C 101.066406 324.625 106.804688 326.050781 112.773438 327.335938 C 121.183594 332.679688 129.949219 337.320312 139.007812 341.148438 C 140.300781 344.679688 141.660156 347.984375 143.160156 350.871094 C 127.945312 348.9375 113.808594 345.199219 100.820312 339.957031 C 98.691406 337.574219 97.097656 335.277344 96.132812 333.085938 C 94.546875 329.496094 94.421875 326.175781 95.503906 323.078125 Z M 279.484375 324.65625 C 279.976562 330.011719 277.84375 336.183594 272.269531 343.242188 C 255.566406 349.261719 236.933594 352.484375 216.597656 352.277344 C 216.90625 351.292969 217.234375 350.378906 217.527344 349.316406 C 234.550781 345.214844 250.835938 337.921875 265.957031 328.222656 C 270.140625 327.257812 274.261719 326.210938 278.277344 325.046875 C 278.6875 324.925781 279.074219 324.777344 279.488281 324.65625 Z M 307.171875 325.824219 C 294.617188 336.175781 280.648438 344.917969 265.609375 351.757812 L 265.632812 351.714844 C 266.40625 350.980469 267.0625 350.273438 267.773438 349.554688 C 271.054688 347.40625 274.171875 344.984375 277.128906 342.3125 C 288.039062 337.957031 298.066406 332.386719 307.167969 325.824219 Z M 115.171875 327.835938 C 121.898438 329.234375 128.8125 330.484375 135.917969 331.53125 C 136.753906 334.542969 137.667969 337.335938 138.621094 340.023438 C 130.558594 336.570312 122.71875 332.5 115.171875 327.835938 Z M 263.535156 328.742188 C 249.171875 337.699219 233.800781 344.445312 217.761719 348.367188 C 218.496094 345.601562 219.1875 342.558594 219.816406 339.308594 C 222.421875 337.722656 224.992188 336.027344 227.53125 334.253906 C 239.914062 333.109375 251.992188 331.285156 263.535156 328.742188 Z M 136.890625 331.679688 C 142.628906 332.511719 148.488281 333.171875 154.394531 333.757812 C 163.949219 341.480469 174.050781 347.589844 184.589844 351.714844 L 183.59375 351.800781 C 168.453125 350.285156 153.742188 346.367188 139.722656 340.476562 C 138.722656 337.714844 137.765625 334.808594 136.890625 331.679688 Z M 84.113281 333 C 89.273438 335.804688 94.660156 338.355469 100.257812 340.628906 C 104.191406 345.015625 110.351562 349.679688 118.5 354.546875 C 106.140625 350.460938 95.285156 343.792969 86.058594 334.988281 C 85.390625 334.347656 84.765625 333.660156 84.113281 333 Z M 155.996094 333.929688 C 162.472656 334.546875 169.007812 335.050781 175.597656 335.355469 L 180.007812 335.484375 C 182.238281 342 184.527344 347.433594 186.878906 351.476562 C 186.757812 351.488281 186.632812 351.511719 186.511719 351.519531 C 175.878906 347.578125 165.664062 341.59375 155.996094 333.929688 Z M 225.824219 334.382812 C 223.90625 335.699219 221.96875 336.957031 220.011719 338.164062 C 220.21875 337.054688 220.441406 335.953125 220.636719 334.792969 Z M 219.730469 334.859375 C 219.5 336.210938 219.238281 337.511719 218.996094 338.792969 C 210.59375 343.882812 201.84375 347.964844 192.800781 350.894531 C 191.496094 351.046875 190.207031 351.152344 188.910156 351.28125 L 188.996094 351.195312 C 189.007812 351.183594 189.007812 351.164062 189.019531 351.152344 C 193.039062 347.175781 196.914062 341.941406 200.625 335.699219 C 207.03125 335.589844 213.394531 335.296875 219.730469 334.859375 Z M 180.914062 335.507812 C 187.136719 335.710938 193.378906 335.792969 199.609375 335.699219 C 196 341.722656 192.261719 346.746094 188.390625 350.570312 L 188.371094 350.589844 L 188.347656 350.589844 C 188.132812 350.84375 187.933594 350.992188 187.722656 351.238281 C 185.414062 347.3125 183.128906 341.953125 180.914062 335.507812 Z M 218.800781 339.9375 C 218.1875 343.042969 217.523438 345.941406 216.8125 348.582031 C 211.449219 349.855469 206.007812 350.800781 200.515625 351.414062 C 198.84375 351.253906 197.171875 351.097656 195.480469 350.894531 C 203.503906 348.097656 211.292969 344.429688 218.800781 339.9375 Z M 102.140625 341.40625 C 114.925781 346.410156 128.808594 349.957031 143.699219 351.800781 C 145.191406 354.558594 146.777344 357.011719 148.476562 359.085938 C 139.125 359.164062 130.382812 358.011719 122.261719 355.734375 C 113.320312 350.691406 106.53125 345.875 102.140625 341.40625 Z M 140.089844 341.601562 C 152.417969 346.707031 165.257812 350.289062 178.472656 352.082031 C 166.539062 352.707031 155.101562 352.324219 144.21875 351.003906 C 144.160156 350.898438 144.097656 350.824219 144.042969 350.722656 C 142.625 348.011719 141.328125 344.914062 140.089844 341.601562 Z M 274.792969 343.199219 C 273.445312 344.347656 272.058594 345.441406 270.644531 346.484375 C 271.40625 345.621094 272.179688 344.753906 272.847656 343.914062 Z M 271.164062 344.539062 C 269.996094 345.9375 268.6875 347.375 267.25 348.839844 C 252.550781 358.46875 234.652344 362.597656 213.871094 359.386719 C 214.296875 358.480469 214.746094 357.691406 215.148438 356.664062 C 215.5625 355.601562 215.925781 354.308594 216.3125 353.121094 C 236.285156 353.347656 254.652344 350.304688 271.164062 344.539062 Z M 216.59375 349.53125 C 216.316406 350.53125 215.980469 351.332031 215.6875 352.253906 C 212.074219 352.203125 208.425781 352.054688 204.707031 351.78125 C 208.710938 351.210938 212.664062 350.453125 216.59375 349.53125 Z M 194.117188 351.628906 L 194.226562 351.628906 L 196.429688 351.867188 C 194.9375 351.988281 193.4375 352.015625 191.933594 352.082031 C 192.269531 351.976562 192.59375 351.84375 192.929688 351.738281 C 193.328125 351.691406 193.71875 351.679688 194.117188 351.628906 Z M 144.800781 351.953125 C 157.058594 353.398438 169.988281 353.6875 183.550781 352.667969 C 184.332031 352.746094 185.121094 352.816406 185.90625 352.882812 C 185.210938 353.058594 184.53125 353.28125 183.832031 353.445312 L 183.808594 353.445312 C 171.625 357.089844 160.214844 358.863281 149.554688 359.0625 C 147.871094 357.082031 146.300781 354.652344 144.800781 351.953125 Z M 188.5 352.191406 C 188.453125 352.203125 188.414062 352.222656 188.371094 352.234375 L 188.304688 352.210938 Z M 200.558594 352.277344 C 205.601562 352.757812 210.550781 353.039062 215.40625 353.121094 C 215.050781 354.191406 214.722656 355.378906 214.347656 356.339844 C 213.917969 357.4375 213.441406 358.285156 212.984375 359.238281 C 205.804688 358.058594 198.285156 356.011719 190.445312 353.011719 C 193.835938 352.898438 197.207031 352.648438 200.558594 352.277344 Z M 187.871094 353.226562 C 190.582031 358.0625 193.160156 361.824219 195.609375 364.359375 C 196.972656 365.769531 198.308594 366.835938 199.609375 367.578125 C 198.203125 367.640625 196.800781 367.757812 195.394531 367.792969 C 185.898438 368.058594 176.429688 367.742188 167.425781 366.953125 C 173.359375 365.640625 179.855469 361.277344 186.921875 353.488281 Z M 188.972656 353.378906 C 197.207031 356.613281 205.082031 358.785156 212.617188 360.035156 C 211.535156 362.175781 210.40625 364.042969 209.203125 365.308594 C 208.410156 366.144531 207.613281 366.746094 206.78125 367.1875 C 205.015625 367.324219 203.242188 367.398438 201.464844 367.492188 C 199.835938 366.890625 198.09375 365.699219 196.234375 363.773438 C 193.96875 361.429688 191.527344 357.859375 188.972656 353.378906 Z M 260.941406 353.507812 C 260.304688 353.871094 259.746094 354.265625 259.082031 354.613281 L 255.753906 355.90625 C 257.519531 355.183594 259.25 354.371094 260.941406 353.507812 Z M 185.082031 353.984375 C 176.902344 362.617188 169.582031 366.660156 163.234375 366.519531 C 162.148438 366.402344 161.082031 366.285156 160.015625 366.152344 C 156.488281 365.300781 153.222656 363.15625 150.246094 359.886719 C 160.789062 359.628906 172.042969 357.867188 184.023438 354.289062 L 184.066406 354.265625 Z M 117.050781 354.980469 C 118.644531 355.53125 120.242188 356.070312 121.890625 356.535156 C 122.457031 356.855469 122.921875 357.164062 123.511719 357.484375 C 121.328125 356.699219 119.195312 355.84375 117.046875 354.980469 Z M 253.851562 356.644531 C 243.597656 360.488281 232.914062 363.4375 221.886719 365.460938 C 217.539062 366.109375 213.105469 366.636719 208.597656 367.015625 C 209.015625 366.683594 209.429688 366.335938 209.828125 365.914062 C 211.15625 364.515625 212.359375 362.488281 213.503906 360.1875 C 228.429688 362.523438 241.9375 361.136719 253.851562 356.644531 Z M 124.847656 357.269531 C 132.4375 359.128906 140.542969 360.050781 149.140625 359.929688 C 151.398438 362.511719 153.839844 364.453125 156.445312 365.71875 C 150.480469 364.878906 144.863281 363.796875 139.761719 362.5 C 139.085938 362.324219 138.425781 362.121094 137.75 361.9375 C 133.269531 360.710938 129.164062 359.335938 125.691406 357.765625 C 125.683594 357.761719 125.679688 357.75 125.671875 357.746094 C 125.363281 357.582031 125.152344 357.433594 124.847656 357.269531 Z M 124.847656 357.269531 " fill-opacity="1" fill-rule="evenodd"/></g></svg>